<svg width="345" height="238" viewBox="0 0 345 238" fill="none" xmlns="http://www.w3.org/2000/svg">
<path d="M345 0H0V238H345V0Z" fill="#EBEBEB"/>
<path fill-rule="evenodd" clip-rule="evenodd" d="M213 145H127V73.0001H213V145ZM209.419 76.6043H130.588V141.402H209.419V76.6043ZM205.838 134.2H137.756L152.088 107.23L162.838 118.204L180.801 91.0017L205.838 134.2ZM163.383 123.884L152.954 113.246L143.731 130.603H199.606L180.602 97.8168L163.383 123.891V123.884ZM146.716 83.7998C151.664 83.7998 155.675 87.8295 155.675 92.8006C155.675 97.7717 151.664 101.801 146.716 101.801C141.768 101.801 137.756 97.7717 137.756 92.8006C137.756 87.8295 141.768 83.7998 146.716 83.7998ZM146.716 87.3975C149.681 87.3975 152.094 89.8154 152.094 92.8006C152.094 95.7858 149.687 98.2037 146.716 98.2037C143.744 98.2037 141.338 95.7858 141.338 92.8006C141.338 89.8154 143.744 87.3975 146.716 87.3975Z" fill="white"/>
</svg>
