<?xml version="1.0" encoding="UTF-8"?>
<svg id="Layer_1" data-name="Layer 1" xmlns="http://www.w3.org/2000/svg" viewBox="0 0 800 800">
  <path d="M799.99.51H0v800h800V.51Z" fill="#ebebeb"/>
  <path d="M560.55,534.42H239.45v-268.83h321.1v268.83ZM547.18,279.04H252.84v241.94h294.34v-241.94ZM533.81,494.09h-254.2l53.51-100.7,40.14,40.97,67.07-101.57,93.48,161.29ZM375.29,455.57l-38.94-39.72-34.44,64.81h208.62l-70.96-122.42-64.29,97.36v-.03ZM313.06,305.91c18.47,0,33.45,15.05,33.45,33.61s-14.98,33.61-33.45,33.61-33.45-15.04-33.45-33.61,14.98-33.61,33.45-33.61ZM313.06,319.34c11.07,0,20.08,9.03,20.08,20.17s-8.99,20.17-20.08,20.17-20.08-9.03-20.08-20.17,8.98-20.17,20.08-20.17Z" fill="#fff" fill-rule="evenodd"/>
</svg>